<?xml version="1.0" encoding="UTF-8" standalone="no"?>
<!-- Created with Inkscape (http://www.inkscape.org/) -->

<svg
   width="136.52499mm"
   height="155.02121mm"
   viewBox="0 0 136.52499 155.02121"
   version="1.1"
   id="svg1"
   xml:space="preserve"
   xmlns:inkscape="http://www.inkscape.org/namespaces/inkscape"
   xmlns:sodipodi="http://sodipodi.sourceforge.net/DTD/sodipodi-0.dtd"
   xmlns="http://www.w3.org/2000/svg"
   xmlns:svg="http://www.w3.org/2000/svg"><sodipodi:namedview
     id="namedview1"
     pagecolor="#ffffff"
     bordercolor="#999999"
     borderopacity="1"
     inkscape:showpageshadow="2"
     inkscape:pageopacity="0"
     inkscape:pagecheckerboard="0"
     inkscape:deskcolor="#d1d1d1"
     inkscape:document-units="mm" /><defs
     id="defs1" /><g
     inkscape:label="Capa 1"
     inkscape:groupmode="layer"
     id="layer1"
     transform="translate(37.052892,-249.10038)"><path
       d="m 27.373151,403.61439 c -0.873125,-0.26528 -5.278437,-1.49601 -9.789583,-2.73496 -4.511146,-1.23895 -13.440838,-3.69327 -19.843758,-5.45405 -6.40291,-1.76078 -14.08244,-3.87214 -17.06562,-4.69192 -2.98318,-0.81977 -5.45421,-1.51118 -5.49117,-1.53647 -0.037,-0.0253 -0.36079,-3.36932 -0.71959,-7.43119 -0.70141,-7.94038 -2.34347,-26.62088 -2.77724,-31.59459 -0.14595,-1.67349 -0.67879,-7.74568 -1.18409,-13.49375 -0.50529,-5.74807 -1.70143,-19.38073 -2.65807,-30.29479 -0.95665,-10.91407 -2.44981,-27.92071 -3.31814,-37.79256 -0.86833,-9.87184 -1.57878,-18.29552 -1.57878,-18.71927 v -0.77046 h 68.2625 c 37.544374,0 68.262498,0.0991 68.262498,0.22016 0,0.12108 -1.84617,20.15335 -4.102599,44.51614 -2.256429,24.36279 -4.524933,48.8799 -5.041119,54.48245 -2.58604,28.06821 -3.806133,40.81929 -3.916358,40.92952 -0.120517,0.12052 -4.001632,1.14616 -18.822215,4.97404 -8.14124,2.10273 -10.751774,2.78098 -27.548818,7.15758 -5.838516,1.52127 -10.720079,2.75481 -10.847916,2.74119 -0.127837,-0.0136 -0.946807,-0.24179 -1.819932,-0.50707 z m 21.101888,-32.63645 c 11.169477,-2.22889 20.359074,-4.10346 20.421328,-4.16571 0.293476,-0.29348 5.440325,-52.58496 5.440325,-55.27317 0,-0.51831 -0.204934,-0.5263 -13.692188,-0.53423 -7.840597,-0.005 -13.522576,-0.10588 -13.295312,-0.23698 0.218281,-0.12592 2.301875,-0.82607 4.630208,-1.55589 11.693635,-3.66541 23.832574,-7.56098 23.993981,-7.70003 0.09981,-0.086 0.666703,-4.38306 1.259754,-9.54905 0.593051,-5.16599 1.141858,-9.77967 1.219571,-10.25261 l 0.141297,-0.85989 H 30.295557 c -38.457987,0 -48.300127,0.0674 -48.306677,0.33072 -0.005,0.18191 0.44115,4.05144 0.99038,8.59896 l 0.99861,8.26823 23.94659,0.008 c 14.61124,0.005 23.785317,0.10243 23.532872,0.25015 -0.227556,0.13315 -6.835524,2.02821 -14.684375,4.21124 -25.478467,7.0864 -31.423227,8.75849 -31.534497,8.86977 -0.13197,0.13196 2.21475,16.28217 2.39158,16.45901 0.0682,0.0682 15.32378,0.19743 33.901341,0.28724 18.577556,0.0898 33.836585,0.25908 33.908955,0.37617 0.177844,0.28776 -2.254412,23.8635 -2.484958,24.08657 -0.100225,0.097 -5.809114,1.26808 -12.686419,2.60246 l -12.504192,2.42613 -8.927058,-2.04387 c -4.909882,-1.12413 -8.979129,-2.08933 -9.042759,-2.14489 -0.0636,-0.0556 -0.66532,-2.98584 -1.33707,-6.51171 l -1.22137,-6.41069 -9.57699,-0.0694 -9.577,-0.0694 v 0.64239 c 0,0.35331 0.34996,3.06347 0.77769,6.02257 0.42773,2.9591 1.21397,8.77346 1.74719,12.9208 0.53323,4.14735 0.99576,7.56929 1.02785,7.60432 0.0321,0.035 2.37124,0.53586 5.19812,1.11294 7.09736,1.44886 25.292664,5.22909 28.02624,5.8227 1.236927,0.2686 2.487083,0.49767 2.778125,0.50904 0.291041,0.0114 9.667829,-1.80296 20.837304,-4.03185 z"
       style="fill:#000000"
       id="path1-2"
       inkscape:export-filename="css-logo.png"
       inkscape:export-xdpi="96"
       inkscape:export-ydpi="96" /></g></svg>
