<?xml version="1.0" encoding="UTF-8" standalone="no"?>
<!-- Created with Inkscape (http://www.inkscape.org/) -->

<svg
   width="136.62051mm"
   height="154.90211mm"
   viewBox="0 0 136.62051 154.90211"
   version="1.1"
   id="svg1"
   xml:space="preserve"
   xmlns:inkscape="http://www.inkscape.org/namespaces/inkscape"
   xmlns:sodipodi="http://sodipodi.sourceforge.net/DTD/sodipodi-0.dtd"
   xmlns="http://www.w3.org/2000/svg"
   xmlns:svg="http://www.w3.org/2000/svg"><sodipodi:namedview
     id="namedview1"
     pagecolor="#ffffff"
     bordercolor="#999999"
     borderopacity="1"
     inkscape:showpageshadow="2"
     inkscape:pageopacity="0"
     inkscape:pagecheckerboard="0"
     inkscape:deskcolor="#d1d1d1"
     inkscape:document-units="mm" /><defs
     id="defs1" /><g
     inkscape:label="Capa 1"
     inkscape:groupmode="layer"
     id="layer1"
     transform="translate(-87.270197,-557.32591)"><path
       d="m 136.65307,706.93575 c -11.64167,-2.97906 -24.50041,-6.26361 -28.575,-7.29899 -4.07458,-1.03538 -7.65784,-1.97691 -7.96279,-2.09229 -0.481608,-0.18222 -0.575738,-0.49944 -0.716518,-2.41468 -0.0891,-1.21269 -0.99843,-11.67036 -2.02065,-23.23927 -1.80958,-20.4799 -2.43919,-27.66178 -7.41084,-84.53438 -1.31027,-14.98864 -2.45313,-27.87716 -2.53969,-28.64114 l -0.15738,-1.38906 h 68.237438 c 37.5306,0 68.2929,0.0555 68.36068,0.12323 0.0678,0.0678 -0.0236,1.70489 -0.20305,3.63802 -3.21248,34.60552 -9.01864,97.32399 -10.69851,115.56583 -1.05196,11.42339 -1.94207,20.80709 -1.97801,20.85268 -0.063,0.0799 -6.54061,1.93493 -16.7888,4.80796 -2.69214,0.75472 -7.15698,2.00842 -9.92188,2.786 -10.4809,2.94757 -15.49541,4.35846 -20.10833,5.65773 -2.61938,0.73777 -5.11969,1.39842 -5.55625,1.46811 -0.51186,0.0817 -8.31098,-1.79691 -21.96042,-5.28975 z m 43.28036,-22.88735 c 11.84811,-3.64514 21.61061,-6.711 21.69445,-6.81302 0.11762,-0.14311 4.26775,-56.67283 4.22385,-57.53392 -0.006,-0.10914 -18.34574,-0.19844 -40.75595,-0.19844 -35.47187,0 -40.74583,-0.0498 -40.74583,-0.38476 0,-0.79438 -0.7824,-18.62784 -0.91466,-20.84805 l -0.13791,-2.31511 h 40.95283 40.95282 l 1.01116,-7.73906 c 0.55614,-4.25648 1.07189,-8.06648 1.14611,-8.46666 l 0.13496,-0.72761 h -51.73871 -51.73871 l 0.14076,1.91823 c 0.0774,1.05503 0.99509,13.90797 2.03927,28.56211 1.04419,14.65414 1.96642,26.71178 2.04941,26.79477 0.083,0.083 17.75578,0.17809 39.27287,0.21133 l 39.12199,0.0604 -0.0855,2.24895 c -0.047,1.23693 -0.34078,7.54354 -0.65286,14.0147 l -0.56743,11.76574 -13.62604,4.21096 -13.62604,4.21097 -3.57187,-0.70962 c -8.018,-1.59294 -28.04828,-5.89032 -28.21033,-6.05237 -0.16148,-0.16148 -0.37484,-3.0317 -0.84006,-11.30079 l -0.18607,-3.30729 -8.40052,-0.0699 -8.40052,-0.0699 0.0203,2.18653 c 0.0112,1.20259 0.33858,7.59296 0.7276,14.20081 l 0.70732,12.01428 14.02292,3.14132 c 7.7126,1.72772 18.42822,4.13857 23.8125,5.35744 5.38427,1.21887 9.97775,2.22721 10.20772,2.24076 0.22998,0.0136 10.11204,-2.95776 21.96014,-6.60291 z"
       style="fill:#000000"
       id="path1-5"
       inkscape:export-filename="html-logo.svg"
       inkscape:export-xdpi="96"
       inkscape:export-ydpi="96" /></g></svg>
