<?xml version="1.0" encoding="UTF-8" standalone="no"?>
<!-- Created with Inkscape (http://www.inkscape.org/) -->

<svg
   width="136.7851mm"
   height="155.34727mm"
   viewBox="0 0 136.7851 155.34727"
   version="1.1"
   id="svg1"
   xml:space="preserve"
   xmlns:inkscape="http://www.inkscape.org/namespaces/inkscape"
   xmlns:sodipodi="http://sodipodi.sourceforge.net/DTD/sodipodi-0.dtd"
   xmlns="http://www.w3.org/2000/svg"
   xmlns:svg="http://www.w3.org/2000/svg"><sodipodi:namedview
     id="namedview1"
     pagecolor="#ffffff"
     bordercolor="#999999"
     borderopacity="1"
     inkscape:showpageshadow="2"
     inkscape:pageopacity="0"
     inkscape:pagecheckerboard="0"
     inkscape:deskcolor="#d1d1d1"
     inkscape:document-units="mm" /><defs
     id="defs1" /><g
     inkscape:label="Capa 1"
     inkscape:groupmode="layer"
     id="layer1"
     transform="translate(-308.67655,-384.24877)"><path
       d="m 373.56805,537.63863 c -4.29967,-1.06717 -10.0742,-2.48782 -12.83229,-3.15699 -11.67606,-2.83289 -39.66259,-9.71836 -39.69454,-9.76597 -0.0191,-0.0285 -0.47582,-5.11191 -1.01493,-11.29654 -1.33861,-15.35647 -3.71857,-42.46149 -4.51859,-51.46146 -0.36219,-4.07459 -1.3139,-14.90928 -2.11491,-24.07709 -2.14264,-24.52334 -4.35668,-49.74698 -4.54846,-51.81903 l -0.16779,-1.81277 68.28095,0.093 c 37.55453,0.0511 68.36454,0.17657 68.46669,0.27873 0.10215,0.10216 -0.012,2.30482 -0.25359,4.89479 -0.24163,2.58998 -1.32868,14.29358 -2.41567,26.00801 -1.08698,11.71443 -2.09258,22.54911 -2.23465,24.07708 -0.14206,1.52797 -0.79229,8.55266 -1.44494,15.61042 -0.65266,7.05775 -1.72799,18.66634 -2.38963,25.79687 -0.66165,7.13052 -1.79524,19.45349 -2.51909,27.38437 -0.72385,7.93089 -1.3802,14.90256 -1.45856,15.49261 l -0.14247,1.07282 -2.04205,0.54754 c -1.7533,0.47011 -7.33403,2.1062 -23.34102,6.84283 -1.81901,0.53826 -4.43838,1.30932 -5.82083,1.71347 -5.92036,1.73075 -11.11679,3.24877 -14.92825,4.36094 -2.24418,0.65485 -4.298,1.183 -4.56406,1.17366 -0.26605,-0.009 -4.00165,-0.89012 -8.30132,-1.95728 z m -8.63031,-66.99356 c 0.0968,-17.26834 0.17602,-36.2996 0.17602,-42.29169 v -10.89471 l -7.6816,-0.18419 c -4.22488,-0.1013 -7.79675,-0.11302 -7.9375,-0.026 -0.16264,0.10052 -0.2559,12.4301 -0.2559,33.83282 0,18.52106 -0.0595,33.73412 -0.13212,33.80679 -0.0727,0.0727 -0.81681,0.0385 -1.65365,-0.076 -6.86041,-0.93825 -19.15243,-2.4013 -19.26117,-2.29256 -0.12482,0.12482 1.09157,13.43263 1.33742,14.6319 0.10241,0.49955 0.7682,0.6062 10.50474,1.68261 8.81768,0.97484 16.50062,2.01625 21.6402,2.93331 0.65484,0.11684 1.61743,0.22645 2.13908,0.24356 l 0.94846,0.0311 z m 53.09257,30.00791 c -4.2e-4,-2.92054 1.27758,-32.45814 1.46244,-33.80052 0.10263,-0.74522 0.59713,-8.03201 0.98354,-14.49306 l 0.0677,-1.1316 -11.77396,-0.059 -11.77396,-0.059 -0.0696,-9.08352 -0.0697,-9.08353 11.77265,0.0705 c 6.47495,0.0387 11.81958,0.0187 11.87694,-0.0446 0.17674,-0.19496 2.11294,-15.32585 1.97837,-15.46041 -0.0695,-0.0696 -9.40482,-0.13074 -20.74506,-0.13598 l -20.61861,-0.01 v 24.81106 24.81106 l 10.64948,-0.0828 10.64948,-0.0828 0.003,1.14114 c 0.004,1.64036 -0.81754,17.48899 -0.92488,17.83719 -0.062,0.20122 -3.11763,0.3522 -9.83663,0.48604 -5.36066,0.10679 -9.76031,0.21356 -9.777,0.23728 -0.0167,0.0237 -0.11182,3.40664 -0.21138,7.51761 l -0.18102,7.47447 h 18.26919 18.26919 z"
       style="fill:#000000"
       id="path1-8" /></g></svg>
